<svg width="188" height="202" viewBox="0 0 188 202" fill="none" xmlns="http://www.w3.org/2000/svg">
<path d="M32.8012 17.6754C51.5635 4.99353 76.3264 -1.10856 102.751 0.165586C124.17 1.1984 145.124 6.70186 164.441 15.9752C170.552 18.9091 176.508 22.1553 182.227 25.7905C184.609 27.3046 185.068 30.5502 183.3 32.7501L173.153 45.3755C172.205 46.5552 170.513 46.8069 169.236 45.9958C164.361 42.9018 159.277 40.1547 154.072 37.6534C137.663 29.77 119.874 25.0483 101.679 24.1583C79.3308 23.0653 59.959 28.3427 46.3334 37.5497C32.9459 46.5959 24.8966 59.5788 24.1729 75.7505C23.1159 99.3732 33.3423 114.318 48.4264 123.238C64.2303 132.583 86.1791 135.654 107.525 132.384C116.142 131.064 118.786 126.825 119.418 124.222C119.823 122.553 119.656 120.797 118.978 119.218C118.3 117.64 117.142 116.305 115.649 115.447C113.348 114.127 110.742 113.502 108.093 113.323C105.166 113.125 102.236 113.035 98.5414 113.035C97.1232 113.035 95.5925 113.033 93.9101 113.016C92.5448 113.002 91.6382 113.026 90.4136 113.025C86.3654 113.024 81.7715 112.951 77.6044 112.623C71.1209 112.113 64.8137 110.207 59.294 106.781C53.5732 103.23 49.1607 97.9289 46.6289 91.7069C44.0971 85.4848 43.5791 78.6247 45.1839 72.1041C48.4757 58.7283 60.0379 48.5221 76.813 45.9544C102.194 42.0695 130.119 45.3189 151.876 58.1806C174.349 71.466 189.368 94.6106 187.901 127.367C186.803 151.892 174.201 171.516 155.198 184.359C155.186 184.367 155.198 184.319 155.186 184.326C136.424 197.007 111.662 203.109 85.2374 201.834C63.8176 200.801 42.8659 195.292 23.5449 186.025C17.441 183.097 11.4867 179.868 5.77201 176.244C3.22551 174.629 2.74218 171.159 4.63125 168.809L14.338 156.732C15.4088 155.399 17.3197 155.12 18.7628 156.036C23.6372 159.13 28.7214 161.877 33.9274 164.378C50.3354 172.262 68.1246 176.983 86.3204 177.873C108.668 178.967 128.039 173.691 141.665 164.484C155.053 155.437 163.102 142.453 163.825 126.283C164.883 102.66 154.657 87.7129 139.573 78.7938C123.769 69.4497 101.822 66.3803 80.4741 69.649C71.855 70.9688 69.2131 75.2082 68.5822 77.8117C68.1778 79.4804 68.3434 81.2359 69.0212 82.8143C69.699 84.3926 70.8565 85.7294 72.3503 86.5859C74.6519 87.9056 77.2584 88.5292 79.9081 88.7089C82.8329 88.9073 85.7643 88.9968 89.457 88.9968C90.8753 88.9968 92.2803 88.9754 94.0889 88.9968C95.185 89.0097 96.3607 89.0098 97.5854 89.0098C101.634 89.0098 106.227 89.0813 110.395 89.4094C116.878 89.9198 123.185 91.8265 128.704 95.2524C134.425 98.8032 138.838 104.104 141.37 110.326C143.902 116.548 144.421 123.408 142.816 129.929C139.525 143.305 127.962 153.511 111.187 156.079C85.8077 159.964 57.8807 156.713 36.1258 143.853C13.6523 130.568 -1.36889 107.424 0.0987916 74.6657C1.19757 50.1427 13.7995 30.5191 32.8012 17.6754Z" fill="black"/>
</svg>
